# xmcd
#
# Track frame offsets: 
#        150
#        12687
#        28137
#        46912
#        60300
#        78300
#        94915
#        110775
#        121952
#        136987
#        150077
#        169715
#
# Disc length: 2411 seconds
#
# Revision: 2
# Processed by: cddbd v1.5.2PL0 Copyright (c) Steve Scherf et al.
# Submitted via: ExactAudioCopy v0.99pb5
#
DISCID=9309690c
DTITLE=Eva Cassidy - Time After Time
DYEAR=2000
DGENRE=Blues
TTITLE0=Kathy's Song
TTITLE1=Ain't No Sunshine
TTITLE2=The Letter
TTITLE3=At Last
TTITLE4=Time After Time
TTITLE5=Penny to My Name
TTITLE6=I Wandered by a Brookside
TTITLE7=I Wish I Was a Single Girl Again
TTITLE8=Easy Street Dream
TTITLE9=Anniversary Song
TTITLE10=Woodstock
TTITLE11=Way Beyond the Blue
EXTD=
EXTT0=
EXTT1=
EXTT2=
EXTT3=
EXTT4=
EXTT5=
EXTT6=
EXTT7=
EXTT8=
EXTT9=
EXTT10=
EXTT11=
PLAYORDER=
